@startuml
abstract class User {
    id: Long
    name : String
    email: String
    phone: String
    photo: Image
}   

class Freelancer {
    status: boolean 
    membership: integer
}

class Chat {
    id: Long
}

class Client {
     company: String
     membership: integer
}

class Notification {
    type: MESSAGE | PROPOSAL | CANCEL | FINALIZE
}


class Skills {
    id: Long
    name: String
}


class Project {
    id: Long
    date: LocalDate
    dateMod: LocalDate
    endDate: LocalDate
    budget: Decimal
    status: WORKING | OPEN | CLOSED
    description: String

}

class Profile {
    description: String
    hourlyRate: Decimal
}

class Rating {
    value: Double
    comment: String
}

class Category {
    id: Long
    name: String
}

class Language {
    id: Long
    name: String
}

class Message {
    type: RECEIVE | SEND
    content: String
    time: timestamp

}

class Admin {
    permissions: List<String>
}

User              <|--             Client
User              <|--             Freelancer
User              <|--             Admin
Project      o--  "0.*"   Skills
Profile  o--  "0.*"   Skills
Project "0..*"   -l-     "0..1"  Client            : has ->
Project "0..*"   -r-     "0..*"  Freelancer      : <- has
Freelancer *-- "0..1" Profile
Freelancer "0..*"   -r-     "1..*"  Language           : has ->
Profile o--> "0..*" Rating
Project "0..1" -- "0..1" Rating
Chat "0..*"   --     "0..1"  Client
Category "0..1"   --     "0..*"  Project
Category "0..*"   --     "0..*"  Freelancer
User o-u- "0..*"   Notification
Chat "0..*"   --     "0..1"  Freelancer
Chat "0..*"   --     "0..1"  Project
Chat "0..1"   -l-     "0..*"  Notification
Chat "0..1"   -u-     "0..*"  Message

@enduml
